<svg width="16" height="16" viewBox="0 0 16 16" fill="none" xmlns="http://www.w3.org/2000/svg">
<path d="M7.11567 8.00039L0.182337 1.06702C-0.0617676 0.822919 -0.0617676 0.427151 0.182337 0.183078C0.426441 -0.0609948 0.822208 -0.0610261 1.06628 0.183078L7.99965 7.11644L14.933 0.183078C15.1771 -0.0610261 15.5728 -0.0610261 15.8169 0.183078C16.061 0.427183 16.061 0.82295 15.8169 1.06702L8.88359 8.00036L15.8169 14.9337C16.061 15.1778 16.061 15.5736 15.8169 15.8177C15.6949 15.9397 15.5349 16.0007 15.3749 16.0007C15.215 16.0007 15.055 15.9397 14.9329 15.8177L7.99965 8.88433L1.06631 15.8177C0.944277 15.9397 0.784301 16.0007 0.624325 16.0007C0.46435 16.0007 0.304405 15.9397 0.182337 15.8177C-0.0617676 15.5736 -0.0617676 15.1778 0.182337 14.9337L7.11567 8.00039Z" fill="#AEAEAE"/>
</svg>
