<svg width="14" height="12" viewBox="0 0 14 12" fill="none" xmlns="http://www.w3.org/2000/svg">
<path d="M10.2812 0C9.52156 0 8.82506 0.233734 8.21114 0.694726C7.62256 1.13668 7.2307 1.69959 7 2.10892C6.7693 1.69957 6.37744 1.13668 5.78886 0.694726C5.17494 0.233734 4.47844 0 3.71875 0C1.59873 0 0 1.68364 0 3.9163C0 6.32835 1.99454 7.97865 5.014 10.477C5.52675 10.9012 6.10794 11.3821 6.71202 11.895C6.79164 11.9627 6.89391 12 7 12C7.10609 12 7.20836 11.9627 7.28798 11.8951C7.89212 11.3821 8.47328 10.9012 8.98633 10.4767C12.0055 7.97865 14 6.32835 14 3.9163C14 1.68364 12.4013 0 10.2812 0Z" fill="#EB4159"/>
</svg>
