<svg width="11" height="11" viewBox="0 0 11 11" fill="none" xmlns="http://www.w3.org/2000/svg">
<path d="M9.28947 6.92579C8.73431 6.92579 8.19053 6.83911 7.67516 6.66905C7.42363 6.58237 7.138 6.64915 6.97269 6.81779L5.95095 7.58943C4.77858 6.9637 4.02827 6.21385 3.41106 5.05L4.16184 4.05242C4.35084 3.86342 4.41859 3.58678 4.33759 3.32769C4.16611 2.809 4.07896 2.26474 4.07896 1.71053C4.07896 1.31878 3.76017 1 3.36843 1H1.71053C1.31878 1 1 1.31878 1 1.71053C1 6.2811 4.7189 10 9.28947 10C9.68122 10 10 9.68122 10 9.28947V7.63632C10 7.24458 9.68122 6.92579 9.28947 6.92579Z" fill="#EB3F57"/>
</svg>
